<!DOCTYPE svg PUBLIC "-//W3C//DTD SVG 1.1//EN" "http://www.w3.org/Graphics/SVG/1.1/DTD/svg11.dtd">
<!-- Uploaded to: SVG Repo, www.svgrepo.com, Transformed by: SVG Repo Mixer Tools -->
<svg height="800px" width="800px" version="1.1" id="Capa_1" xmlns="http://www.w3.org/2000/svg" xmlns:xlink="http://www.w3.org/1999/xlink" viewBox="0 0 240.292 240.292" xml:space="preserve" fill="#7BA399">
<g id="SVGRepo_bgCarrier" stroke-width="0"/>
<g id="SVGRepo_tracerCarrier" stroke-linecap="round" stroke-linejoin="round"/>
<g id="SVGRepo_iconCarrier"> <g> <path style="fill:#7BA399;" d="M229.42,82.116h-54.336c-6.005,0-10.878-4.873-10.878-10.878V20.889 c0-6.005-4.873-10.878-10.878-10.878H86.971c-6.005,0-10.878,4.873-10.878,10.878v50.349c0,6.005-4.868,10.878-10.878,10.878 H10.878C4.873,82.116,0,86.99,0,92.994v54.32c0,6.005,4.873,10.878,10.878,10.878h54.336c6.01,0,10.878,4.873,10.878,10.878v50.333 c0,6.005,4.873,10.878,10.878,10.878h66.351c6.005,0,10.878-4.873,10.878-10.878v-50.333c0-6.005,4.873-10.878,10.878-10.878 h54.336c6.005,0,10.878-4.873,10.878-10.878v-54.32C240.298,86.99,235.424,82.116,229.42,82.116z"/> </g> </g>
</svg>